<?xml version="1.0" standalone="no"?>
<!DOCTYPE svg PUBLIC "-//W3C//DTD SVG 1.1//EN" "http://www.w3.org/Graphics/SVG/1.1/DTD/svg11.dtd" >
<!--
2013-9-30: Created.
-->
<svg>
<metadata>
Created by iconfont
</metadata>
<defs>

<font id="iconfont" horiz-adv-x="1024" >
  <font-face
    font-family="iconfont"
    font-weight="500"
    font-stretch="normal"
    units-per-em="1024"
    ascent="896"
    descent="-128"
  />
    <missing-glyph />
    
    <glyph glyph-name="x" unicode="x" horiz-adv-x="1001"
d="M281 543q-27 -1 -53 -1h-83q-18 0 -36.5 -6t-32.5 -18.5t-23 -32t-9 -45.5v-76h912v41q0 16 -0.5 30t-0.5 18q0 13 -5 29t-17 29.5t-31.5 22.5t-49.5 9h-133v-97h-438v97zM955 310v-52q0 -23 0.5 -52t0.5 -58t-10.5 -47.5t-26 -30t-33 -16t-31.5 -4.5q-14 -1 -29.5 -0.5
t-29.5 0.5h-32l-45 128h-439l-44 -128h-29h-34q-20 0 -45 1q-25 0 -41 9.5t-25.5 23t-13.5 29.5t-4 30v167h911zM163 247q-12 0 -21 -8.5t-9 -21.5t9 -21.5t21 -8.5q13 0 22 8.5t9 21.5t-9 21.5t-22 8.5zM316 123q-8 -26 -14 -48q-5 -19 -10.5 -37t-7.5 -25t-3 -15t1 -14.5
t9.5 -10.5t21.5 -4h37h67h81h80h64h36q23 0 34 12t2 38q-5 13 -9.5 30.5t-9.5 34.5q-5 19 -11 39h-368zM336 498v228q0 11 2.5 23t10 21.5t20.5 15.5t34 6h188q31 0 51.5 -14.5t20.5 -52.5v-227h-327z" />
    

    
    <glyph glyph-name="hangqing-dangqian" unicode="&#58953;" d="M746.3936 680.1408H277.6064c-33.8944 0-61.6448-27.7504-61.6448-61.6448v-468.7872c0-33.8944 27.7504-61.6448 61.6448-61.6448h468.7872c33.8944 0 61.6448 27.7504 61.6448 61.6448V618.3936c0.1024 33.8944-27.7504 61.7472-61.6448 61.7472zM489.7792 266.752L380.0064 374.1696l-81.408-81.408-44.4416 46.8992L380.0064 461.824l107.3152-103.6288L592.1792 461.824v59.1872h144.384l-246.784-254.2592z"  horiz-adv-x="1024" />

    
    <glyph glyph-name="shouyedangqian" unicode="&#58954;" d="M512 694.9888L215.9616 431.104v-358.0928h216.6784s-9.4208 11.8784-9.4208 21.4016V196.608v6.3488s0.2048 0.7168 0.4096 1.6384c4.096 45.3632 42.1888 80.9984 88.576 80.9984 43.2128 0 79.1552-28.5696 87.2448-71.68 1.024-3.6864 1.4336-7.0656 1.4336-9.9328v-3.3792c0.1024-1.8432 0.2048-3.584 0.2048-5.4272 0-1.6384-0.2048-3.1744-0.2048-4.8128 0.1024-30.5152 0.2048-87.04 0.2048-96.8704 0-11.4688-11.4688-20.5824-11.4688-20.5824H807.936V431.104L512 694.9888z"  horiz-adv-x="1024" />

    
    <glyph glyph-name="jiaoyi-dangqian" unicode="&#58955;" d="M512 678.6048c-162.7136 0-294.6048-131.8912-294.6048-294.6048S349.2864 89.3952 512 89.3952 806.6048 221.2864 806.6048 384 674.7136 678.6048 512 678.6048zM645.3248 384H539.0336v-53.5552h106.2912v-52.736H538.5216v-79.9744h-53.248v79.6672H378.6752v53.248h106.5984v53.248H378.6752v51.8144h46.592l-44.8512 69.7344 48.8448 27.7504 47.8208-70.144h69.9392l51.4048 68.8128L642.048 500.736l-50.0736-63.8976h53.248V384h0.1024z"  horiz-adv-x="1024" />

    
    <glyph glyph-name="jiaoyi" unicode="&#58956;" d="M643.072 504.7296l-44.032 31.3344-51.8144-69.3248h-70.4512l-48.128 70.656-49.152-27.9552 45.1584-70.2464h-47.0016v-52.224h107.4176v-53.6576H377.6512v-53.6576h107.4176v-80.2816h53.6576v80.4864h107.6224v53.1456H539.2384v53.9648h107.1104v53.4528h-53.6576zM512 705.3312c-177.4592 0-321.3312-143.872-321.3312-321.3312S334.5408 62.6688 512 62.6688 833.3312 206.5408 833.3312 384 689.4592 705.3312 512 705.3312z m0-588.5952c-147.6608 0-267.264 119.7056-267.264 267.264s119.7056 267.264 267.264 267.264 267.264-119.7056 267.264-267.264-119.6032-267.264-267.264-267.264z"  horiz-adv-x="1024" />

    
    <glyph glyph-name="shouye" unicode="&#58957;" d="M524.9024 714.1376s-5.632 6.4512-12.9024 6.4512-15.36-6.4512-15.36-6.4512L190.7712 436.4288v-389.12H470.016s-16.1792 20.992-16.1792 53.248h0.1024v3.2768h-0.1024l0.2048 86.528c0 32.256 24.9856 58.6752 57.344 58.6752s58.6752-26.4192 58.6752-58.6752v-91.648h-0.1024C569.344 67.584 553.984 47.4112 553.984 47.4112h279.2448v389.12L524.9024 714.1376z m247.3984-610.2016H626.9952v96.8704c0 63.8976-52.3264 116.224-116.224 116.224s-116.224-52.3264-116.224-116.224v-96.8704H250.4704V411.4432l244.5312 221.5936c16.384 21.8112 32.3584 3.2768 32.3584 3.2768l244.8384-224.8704v-307.5072h0.1024z"  horiz-adv-x="1024" />

    
    <glyph glyph-name="hangqing" unicode="&#58958;" d="M745.0624 709.0176H278.9376c-49.664 0-90.3168-40.6528-90.3168-90.3168v-469.4016c0-49.664 40.6528-90.3168 90.3168-90.3168h466.1248c49.664 0 90.3168 40.6528 90.3168 90.3168V618.7008c0 49.664-40.6528 90.3168-90.3168 90.3168z m32.256-562.3808c0-14.5408-11.8784-26.4192-26.4192-26.4192H274.2272c-14.5408 0-26.4192 11.8784-26.4192 26.4192V314.368l19.6608-20.6848 80.9984 80.9984 109.1584-106.7008 245.3504 252.7232H559.4112V461.824L455.168 358.6048 348.4672 461.7216l-100.5568-97.5872V623.0016c0 14.5408 11.8784 26.4192 26.4192 26.4192h476.7744c14.5408 0 26.4192-11.8784 26.4192-26.4192v-476.3648h-0.2048z"  horiz-adv-x="1024" />

    
    <glyph glyph-name="zixun-dangqian" unicode="&#58959;" d="M712.6016 413.3888V693.1456H210.5344v-530.7392c0-67.072 57.4464-87.552 69.0176-87.552h445.8496c86.9376 0 88.1664 93.2864 88.1664 93.2864V413.3888h-100.9664zM600.064 303.9232H324.096V365.568H600.064v-61.6448z m0 153.2928H324.096v61.7472H600.064v-61.7472z m102.1952-323.9936V357.2736H751.616v-178.8928s11.1616-44.2368-49.3568-45.1584z"  horiz-adv-x="1024" />

    
    <glyph glyph-name="wode-dangqian" unicode="&#58960;" d="M684.544 507.904c0-93.5936-75.4688-169.472-168.6528-169.472S347.2384 414.3104 347.2384 507.904s75.4688 169.472 168.6528 169.472c93.0816 0 168.6528-75.8784 168.6528-169.472zM202.9568 90.624l58.0608 164.9664c4.608 13.2096 16.6912 22.9376 33.28 30.6176 22.1184 10.1376 52.4288 8.8064 76.3904 0.4096l34.0992-11.8784c66.56-23.2448 147.7632-23.2448 214.3232 0l33.9968 11.8784c20.5824 7.168 46.4896 9.0112 67.072 1.7408 21.0944-7.3728 36.9664-20.0704 42.3936-35.6352l58.368-162.0992H202.9568z"  horiz-adv-x="1024" />

    
    <glyph glyph-name="wode" unicode="&#58961;" d="M632.9344 481.5872c0 65.3312-52.6336 118.1696-117.4528 118.1696s-117.4528-52.8384-117.4528-118.1696S450.56 363.4176 515.4816 363.4176s117.4528 52.9408 117.4528 118.1696z m52.736 0c0-94.3104-76.1856-170.9056-170.1888-170.9056s-170.1888 76.4928-170.1888 170.9056 76.1856 170.9056 170.1888 170.9056c94.0032 0 170.1888-76.4928 170.1888-170.9056zM272.896 115.712L224.256 135.8848l49.4592 119.1936c6.9632 17.2032 22.016 28.4672 43.2128 36.6592 23.7568 9.216 55.0912 9.0112 82.1248 1.024l29.0816-8.6016c51.8144-15.36 115.9168-15.36 167.8336 0l28.9792 8.6016c23.3472 6.8608 50.2784 7.7824 72.192 1.2288 25.2928-7.4752 44.9536-21.2992 52.9408-40.7552L799.744 135.9872l-48.5376-20.5824-49.9712 117.5552c-0.9216 2.2528-7.68 7.0656-19.1488 10.4448-11.5712 3.3792-28.2624 2.8672-42.2912-1.2288l-28.9792-8.6016c-61.6448-18.2272-136.0896-18.2272-197.7344 0l-29.0816 8.6016c-16.5888 4.9152-36.1472 5.0176-48.128 0.4096-9.0112-3.4816-13.2096-6.656-13.6192-7.68L272.896 115.712z"  horiz-adv-x="1024" />

    
    <glyph glyph-name="fengxianceping" unicode="&#59144;" d="M481.458087 839.368348L512 868.129391l30.541913-28.761043A474.735304 474.735304 0 0 1 868.173913 710.477913h44.521739v-479.944348l-6.500174-10.685217a703.042783 703.042783 0 0 0-380.215652-301.100522L512-85.837913l-13.935304 4.585739a703.042783 703.042783 0 0 0-380.215653 301.100522L111.304348 230.533565V710.433391h44.521739c121.321739 0 237.879652 46.169043 325.632 128.890435z m-128.222609-420.997565L304.083478 363.831652l146.788174-132.096 269.04487 242.153739-49.062957 54.494609-219.937391-197.943652-97.769739 87.930435z"  horiz-adv-x="1024" />

    
    <glyph glyph-name="baojiahuigou" unicode="&#59145;" d="M302.506667 352.64c0 8.96 3.626667 17.066667 9.514666 22.954667a30.762667 30.762667 0 0 1-11.776-22.442667c0-10.325333 4.778667-22.229333 12.544-28.928a25.088 25.088 0 0 1 14.592-5.333333h305.152l1.109334 1.322666H334.933333a32.426667 32.426667 0 0 0-32.426666 32.426667z m125.824 405.802667h212.309333c22.357333 0 41.258667 21.077333 41.258667 47.189333 0 26.026667-18.816 47.061333-42.496 47.061333H428.373333c-23.552 0-42.368-20.992-42.368-47.061333 0-26.026667 18.858667-47.189333 42.368-47.189333zM835.413333 802.218667h-95.744c0.938667-5.12 1.536-10.325333 1.536-15.658667 0.085333-39.594667-28.586667-78.549333-62.634666-78.549333H384.725333c-35.84 0-64.512 38.954667-64.512 78.506666 0.085333 5.290667 0.597333 10.538667 1.578667 15.701334h-96.853333C147.114667 802.218667 128 757.973333 128 694.016V61.013333c0-68.650667 27.392-107.093333 102.826667-107.093333h608c75.434667 0 102.826667 38.442667 102.826666 107.093333V694.016c-0.042667 64-34.304 108.202667-106.24 108.202667zM332.202667 561.92h405.077333c15.317333 0 28.245333-15.445333 28.245333-30.890667 0-15.402667-9.728-31.957333-25.088-31.957333H329.130667c-15.402667 0-25.130667 16.554667-25.130667 32 0 15.402667 12.970667 30.848 28.245333 30.848z m402.304-418.517333H334.933333a32.426667 32.426667 0 0 0 0 64.853333h399.616a32.426667 32.426667 0 1 0 0-64.853333z m0 176.853333h-100.864l-1.109334-1.322667H327.381333a25.173333 25.173333 0 0 0-14.592 5.333334 40.192 40.192 0 0 0-12.544 28.928 30.762667 30.762667 0 0 0 11.776 22.442666 32.341333 32.341333 0 0 0 22.912 9.472h399.616a32.426667 32.426667 0 0 0 0-64.853333z"  horiz-adv-x="1024" />

    
    <glyph glyph-name="chuangyeban" unicode="&#59146;" d="M872.838095 651.410286a2017.767619 2017.767619 0 0 0-57.197714-75.727238c-35.693714-44.909714-70.509714-84.163048-103.862857-116.248381a506.63619 506.63619 0 0 0-73.532953-59.782096c-53.540571-34.767238-138.630095-64.658286-248.539428-91.623619-62.610286-15.36-129.462857-28.769524-196.266667-40.179809a3177.374476 3177.374476 0 0 0-89.429333-13.994667l-48.323048-6.436571-12.970666 96.646095 48.323047 6.485333a3080.387048 3080.387048 0 0 1 85.918476 13.409524 2755.535238 2755.535238 0 0 1 189.537524 38.814476c99.961905 24.527238 176.810667 51.541333 218.697143 78.652953a413.208381 413.208381 0 0 1 59.001905 48.371809c29.891048 28.672 61.927619 64.804571 95.085714 106.544762A2047.024762 2047.024762 0 0 1 822.759619 749.714286H682.666667V847.238095h203.337143l11.312761 18.334476 29.744762-18.334476h43.300572v-26.672762l9.99619-6.144-9.99619-16.188952v-242.980571h-97.52381V651.410286zM48.761905-128v243.809524c325.095619-32.52419 633.904762 64.999619 926.47619 292.571428v-536.380952H48.761905z"  horiz-adv-x="1024" />

    
    <glyph glyph-name="wodezijin" unicode="&#59147;" d="M874.029229 746.029229A508.646878 508.646878 0 0 0 1023.998138 384c0-136.750048-53.247806-265.308126-149.968909-362.029229A508.646878 508.646878 0 0 0 512-127.998138c-136.750048 0-265.308126 53.247806-362.029229 149.968909A508.646878 508.646878 0 0 0 0.001862 384c0 136.750048 53.247806 265.308126 149.968909 362.029229A508.646878 508.646878 0 0 0 512 895.998138c136.750048 0 265.308126-53.247806 362.029229-149.968909zM614.399628 353.745565a37.282774 37.282774 0 0 1 0 74.519001h-51.33945l57.111065 57.111065a37.236228 37.236228 0 0 1-52.689263 52.735809l-70.562652-70.609198L426.31013 538.064894a37.236228 37.236228 0 1 1-52.642718-52.689263l57.017975-57.111065H378.508122a37.236228 37.236228 0 1 1 0-74.519001h80.662979v-40.540944H375.156861a37.236228 37.236228 0 0 1 0-74.519002h84.060785v-71.167741a37.236228 37.236228 0 1 1 74.472457 0v71.167741h77.358264a37.236228 37.236228 0 1 1 0 74.472457h-77.358264v40.587489H614.399628z"  horiz-adv-x="1024" />

    
    <glyph glyph-name="shoujishezhi" unicode="&#59148;" d="M1005.507173 491.799256a159.51502 159.51502 0 0 0-135.260187 79.827207 159.51502 159.51502 0 0 0-1.533352 156.912969 510.094927 510.094927 0 0 1-221.081404 127.77929 159.51502 159.51502 0 0 0-136.747074-77.225156A159.51502 159.51502 0 0 0 374.138083 856.318722a510.141392 510.141392 0 0 1-221.081405-127.77929 159.51502 159.51502 0 0 0-1.533351-156.912969A159.51502 159.51502 0 0 0 16.309605 491.752791 511.581813 511.581813 0 0 1 0.186182 364.159361c0-44.141937 5.575824-86.889917 16.076958-127.68636a159.51502 159.51502 0 0 0 136.793538-236.693711 510.187857 510.187857 0 0 1 221.081405-127.825755 159.51502 159.51502 0 0 0 136.747073 77.225156c57.988565 0 108.775025-30.945821 136.747074-77.225156a510.187857 510.187857 0 0 1 221.081404 127.77929 159.51502 159.51502 0 0 0 1.533352 156.912969 159.51502 159.51502 0 0 0 135.213722 79.827207c10.5476 40.796443 16.123423 83.590888 16.123423 127.68636 0 44.049006-5.575824 86.843452-16.076958 127.639895zM510.838691 233.127507a131.031854 131.031854 0 1 0 0 262.063708 131.031854 131.031854 0 0 0 0-262.063708z"  horiz-adv-x="1024" />

    
    <glyph glyph-name="sanfangcunguan" unicode="&#59154;" d="M0 0V512h1408v-512a128 128 0 0 0-128-128H128a128 128 0 0 0-128 128zM1280 896a128 128 0 0 0 128-128v-128H0V768a128 128 0 0 0 128 128h1152z"  horiz-adv-x="1408" />

    
    <glyph glyph-name="rongzirongquan" unicode="&#59155;" d="M695.714909 663.412364c149.969455-100.910545 250.647273-294.4 250.647273-410.065455 0-218.344727-176.593455-359.424-449.908364-359.424S46.545455 34.909091 46.545455 253.346909c0 115.665455 100.631273 309.061818 250.600727 410.065455-22.760727 30.161455-35.979636 63.581091-35.979637 95.045818C261.166545 877.986909 408.576 895.860364 496.453818 895.860364c204.660364 0 235.147636-86.109091 235.147637-137.402182 0-31.464727-13.218909-64.884364-35.84-95.045818z m-67.351273-393.774546H512v42.263273h116.363636a23.272727 23.272727 0 0 1 0 46.545454h-97.233454l90.437818 90.437819a23.272727 23.272727 0 0 1-32.954182 32.907636L488.727273 381.858909 388.840727 481.745455a23.272727 23.272727 0 0 1-32.954182-32.907637l90.437819-90.437818H349.090909a23.272727 23.272727 0 1 1 0-46.545455H465.454545v-42.263272H349.090909a23.272727 23.272727 0 0 1 0-46.545455H465.454545v-118.504727a23.272727 23.272727 0 0 1 46.545455 0v118.504727h116.363636a23.272727 23.272727 0 0 1 0 46.545455z"  horiz-adv-x="1024" />

    
    <glyph glyph-name="mimaxiugai" unicode="&#59156;" d="M534.243506 272.689903l111.302751-111.302751-111.302751-111.302751L422.940755 161.387152l111.302751 111.302751zM475.253048 847.412788c205.108709 24.442084 399.443312-89.353848 484.122445-282.263777 5.119927-11.441923 18.253651-16.472807 29.294884-11.35288 11.130275 5.164448 16.116638 18.520778 11.130276 29.9627-92.603889 211.030016-305.325706 335.02128-529.533968 308.753831C246.058424 866.11165 66.237699 695.818441 22.651542 468.80535a22.572198 22.572198 0 0 1 4.986363-18.698862V-128h973.05317V461.771016H66.415784C106.840943 668.482485 270.901198 823.415914 475.253048 847.457309z"  horiz-adv-x="1024" />

    
    <glyph glyph-name="zixun" unicode="&#58962;" d="M709.4272 429.1584V703.1808H192.6144v-551.7312c0-66.4576 57.0368-86.7328 68.4032-86.7328h483.0208c86.1184 0 87.3472 92.4672 87.3472 92.4672V429.1584H709.4272z m-59.5968-303.8208H275.968s-21.1968 4.1984-21.1968 24.4736V642.7648h395.1616v-517.5296h-0.1024z m60.0064 29.4912v212.992h60.8256V155.648c0-16.0768-9.3184-32.9728-28.4672-33.3824-13.5168-0.2048-32.3584 8.8064-32.3584 32.5632zM314.6752 429.1584h273.6128v-61.2352H314.6752zM314.6752 551.5264h273.6128v-61.2352H314.6752zM314.6752 308.224h273.6128v-61.1328H314.6752z"  horiz-adv-x="1024" />

    
    <glyph glyph-name="ziyuan" unicode="&#59157;" d="M512 896a512 512 0 1 1 512-512A512 512 0 0 1 512 896z m0-981.333333a469.333333 469.333333 0 1 0 469.333333 469.333333 469.333333 469.333333 0 0 0-469.333333-469.333333zM469.333333 554.666667L213.333333 128l256 213.333333 85.333334-128 256 426.666667-256-213.333333z"  horiz-adv-x="1024" />

    
    <glyph glyph-name="ziyuan1" unicode="&#59158;" d="M512 896a512 512 0 1 1 512-512 512 512 0 0 1-512 512z m211.057778-642.275556a56.888889 56.888889 0 1 0-80.213334-80.213333L512 303.78666699999997l-130.275556-130.844445A56.888889 56.888889 0 0 0 301.511111 253.15555600000005L431.786667 384l-130.844445 130.275556a56.888889 56.888889 0 0 0 80.782222 80.782222L512 464.213333l130.275556 130.275556a56.888889 56.888889 0 0 0 80.213333-80.213333L592.213333 384z"  horiz-adv-x="1024" />

    
    <glyph glyph-name="ziyuan2" unicode="&#59159;" d="M760.929524-128a24.380952 24.380952 0 0 0-17.066667 7.314286L238.689524 384 743.375238 888.685714a24.380952 24.380952 0 0 0 34.620952-34.620952L307.44381 384l470.55238-470.552381a24.380952 24.380952 0 0 0-17.066666-41.447619z"  horiz-adv-x="1024" />

    
    <glyph glyph-name="ziyuan3" unicode="&#59160;" d="M549.909848 384.049013L1015.259611 849.937375a26.929963 26.929963 0 1 1-38.240548 38.240548L511.6693 422.28956 45.780937 887.639324a26.929963 26.929963 0 0 1-37.701948-37.701949L473.428752 384.049013 8.078989-81.83935a26.929963 26.929963 0 1 1 38.240548-38.240548l465.349763 465.888363 465.888363-465.888363a26.929963 26.929963 0 1 1 38.240547 38.240548z"  horiz-adv-x="1024" />

    
    <glyph glyph-name="xingxing" unicode="&#59161;" d="M539.101965 879.121751l134.794872-273.246686c4.38833-8.849799 12.945574-15.0666 22.746177-16.456237l301.478276-43.810162c24.794065-3.656942 34.667808-34.009558 16.821932-51.416601l-218.246282-212.760869a30.206339 30.206339 0 0 1-8.703522-26.622536l51.562879-300.308055a30.206339 30.206339 0 0 0-43.810162-31.815393L526.083252 64.355135a29.986922 29.986922 0 0 1-28.085312 0L228.261918-77.314788a30.1332 30.1332 0 0 0-43.663884 31.815393l51.489739 300.308055a29.986922 29.986922 0 0 1-8.630382 26.622536L9.211109 494.192065a30.1332 30.1332 0 0 0 16.675654 51.416601l301.551415 43.810162a30.206339 30.206339 0 0 1 22.746177 16.456237L485.052366 879.121751a30.1332 30.1332 0 0 0 54.049599 0z"  horiz-adv-x="1024" />

    


  </font>
</defs>
</svg>
